C:\GBW_MyPrograms\KinderuniversiteitApp\Resultaten\Ellis_v10102025\Volwassenen\Volwassenen_v4.mot
version=1
nRows=14
nColumns=29
inDegrees=yes
endheader
                time	         pelvis_tilt	           pelvis_tx	           pelvis_ty	       hip_flexion_l	       hip_flexion_r	        knee_angle_l	        knee_angle_r	       ankle_angle_l	       ankle_angle_r	    lumbar_extension	hamstrings_r/activation	bifemsh_r/activation	glut_max_r/activation	iliopsoas_r/activation	rect_fem_r/activation	  vasti_r/activation	gastroc_r/activation	 soleus_r/activation	tib_ant_r/activation	hamstrings_l/activation	bifemsh_l/activation	glut_max_l/activation	iliopsoas_l/activation	rect_fem_l/activation	  vasti_l/activation	gastroc_l/activation	 soleus_l/activation	tib_ant_l/activation	
          1.00000000	         -7.89926380	          1.20000001	          1.01899713	         27.47389263	         -2.66580529	        -10.81445120	        -20.26449530	          7.09369906	          3.02298823	          1.15359532	          0.05000005	          0.05000033	          0.05000086	          0.56509812	          0.31479981	          0.08888988	          0.23225217	          0.19365573	          0.05000001	          0.31961497	          0.05000010	          0.10912263	          0.05000005	          0.07976437	          0.05000012	          0.05000002	          0.05000006	          0.23652932	
          1.02000000	         -8.17620572	          1.22864715	          1.01754679	         25.99855701	         -2.47469829	         -9.80033029	        -22.76556843	          6.83350311	          1.04993794	          2.01740900	          0.07313393	          0.05000443	          0.05000026	          0.50506771	          0.23609987	          0.06666742	          0.17418913	          0.14524181	          0.05000000	          0.28887417	          0.05000042	          0.12293963	          0.05000003	          0.05982330	          0.13860247	          0.05041641	          0.06504739	          0.24160515	
          1.04000000	         -8.43270276	          1.25667788	          1.01607387	         24.46184531	         -1.17113854	         -9.49246732	        -27.11642390	          6.53131336	         -1.30258609	          2.79186013	          0.05485055	          0.05000057	          0.05371080	          0.43905564	          0.17707494	          0.05000057	          0.13064186	          0.10893136	          0.24582809	          0.21665566	          0.05000022	          0.19961872	          0.05000001	          0.05000005	          0.19320226	          0.05000003	          0.05000004	          0.29722044	
          1.06000000	         -8.66709842	          1.28276776	          1.01558016	         23.19340209	          0.84445673	         -9.51341222	        -31.99950271	          6.48669574	         -1.57040178	          3.32232194	          0.05418487	          0.14365191	          0.05000002	          0.34036526	          0.29004224	          0.05000000	          0.09798142	          0.08169852	          0.27221244	          0.17097162	          0.05000019	          0.20269317	          0.05000002	          0.05000018	          0.24319646	          0.05000003	          0.05000003	          0.31296639	
          1.08000000	         -8.87563736	          1.30709177	          1.01676541	         22.05288957	          3.13681259	         -9.64184532	        -36.10751252	          6.62770033	         -0.77749403	          3.62611333	          0.06948279	          0.23776996	          0.05000001	          0.25666256	          0.36578539	          0.05000000	          0.09547784	          0.06127390	          0.24539283	          0.14322341	          0.05000031	          0.17343117	          0.05000004	          0.05000021	          0.24873158	          0.05000006	          0.05000009	          0.29843676	
          1.10000000	         -9.04819940	          1.33034533	          1.01924815	         20.73650518	          5.49520894	         -9.42817887	        -39.14272590	          6.98367218	          0.22298631	          3.77166616	          0.06990573	          0.32591820	          0.05000001	          0.19835452	          0.39205296	          0.05000000	          0.08461234	          0.05000002	          0.22265005	          0.12503291	          0.05000032	          0.15196292	          0.05000003	          0.05000014	          0.21587897	          0.05000006	          0.05000007	          0.27650664	
          1.12000000	         -9.17477168	          1.35290407	          1.02229253	         19.19163755	          7.88305327	         -8.81603090	        -41.29317391	          7.35572368	          1.25603875	          3.78879141	          0.05242966	          0.41891201	          0.05000001	          0.15997699	          0.37946662	          0.05000000	          0.06345938	          0.05000002	          0.20753595	          0.11262288	          0.05000024	          0.13988605	          0.05000002	          0.05000013	          0.17954324	          0.05000004	          0.05000007	          0.25845527	
          1.14000000	         -9.24685511	          1.37492965	          1.02527058	         17.48061932	         10.32903602	         -7.94546119	        -42.85340310	          7.68074677	          2.27216697	          3.68398798	          0.05000010	          0.50300323	          0.05000001	          0.14169857	          0.34892553	          0.05000001	          0.05000038	          0.05000002	          0.19710668	          0.09901221	          0.05000020	          0.12319722	          0.05000002	          0.05000018	          0.15575406	          0.05000004	          0.05000007	          0.24568664	
          1.16000000	         -9.25901729	          1.39649426	          1.02775320	         15.66327200	         12.89590938	         -6.94204441	        -44.18534791	          7.95713234	          3.21156508	          3.45734520	          0.05000005	          0.54493734	          0.05000001	          0.13244877	          0.31428655	          0.05000001	          0.05000015	          0.05000002	          0.19768615	          0.08468601	          0.05000018	          0.10708528	          0.05000002	          0.05000030	          0.14190226	          0.05000003	          0.05000007	          0.23584160	
          1.18000000	         -9.21069981	          1.41768727	          1.02951787	         13.76881325	         15.61236315	         -5.87349504	        -45.53801480	          8.22087883	          4.06686371	          3.11698752	          0.05000003	          0.53506110	          0.05000001	          0.12777851	          0.28371329	          0.05000001	          0.05000018	          0.05000002	          0.19970763	          0.07107976	          0.05000019	          0.09140636	          0.05000003	          0.05000048	          0.13062327	          0.05000004	          0.05000007	          0.22443425	
          1.20000000	         -9.10558057	          1.43865851	          1.03052780	         11.80676548	         18.43169451	         -4.77224504	        -46.92955971	          8.51578451	          4.87565791	          2.68295722	          0.05000002	          0.49037014	          0.05000001	          0.12739736	          0.25922623	          0.05000001	          0.05000017	          0.05000002	          0.20158317	          0.05921616	          0.05000022	          0.07724540	          0.05000003	          0.05000060	          0.11782504	          0.05000003	          0.05000006	          0.20790673	
          1.22000000	         -8.95027736	          1.45960547	          1.03087259	          9.76878417	         21.25441959	         -3.63377977	        -48.20958699	          8.85163538	          5.62950892	          2.18400909	          0.05000001	          0.40554762	          0.05000001	          0.13201874	          0.23957524	          0.05000002	          0.05000014	          0.05000002	          0.20294360	          0.05010031	          0.05000025	          0.06280393	          0.05000004	          0.05000094	          0.10392601	          0.05000021	          0.05000035	          0.18449615	
          1.24000000	         -8.75324275	          1.48074824	          1.03069306	          7.63188825	         23.95109383	         -2.41067984	        -49.12907644	          9.10030831	          6.31564612	          1.65336915	          0.05000001	          0.30416089	          0.05000001	          0.14664957	          0.22490682	          0.05000003	          0.05000010	          0.05000003	          0.20434159	          0.05000015	          0.05000028	          0.05241569	          0.05000004	          0.05000208	          0.08989360	          0.10295154	          0.05000014	          0.18164612	
          1.26000000	         -8.52424641	          1.50223394	          1.03010560	          5.43036851	         26.41027097	         -1.16321523	        -49.45611921	          9.24663320	          6.92379414	          1.11751792	          0.05000001	          0.22812072	          0.05000001	          0.16593388	          0.20793648	          0.05000009	          0.05000008	          0.05000003	          0.20505887	          0.05000013	          0.05000034	          0.05000030	          0.05000005	          0.05546880	          0.08014508	          0.15862841	          0.05000018	          0.18439610	
